{"title":"Zombie Hunter 2013 BRRip 720p x264 AAC - PRiSTiNE [P2PDL]","uid":8980642,"size":583255654,"categoryP":"video","categoryS":"movies","magnet":"?xt=urn:btih:0387e6044e00f3d9b6b54258fc23963f0f9a44d3&amp;dn=Zombie+Hunter+2013+BRRip+720p+x264+AAC+-+PRiSTiNE+%5BP2PDL%5D&amp;tr=udp%3A%2F%2Ftracker.openbittorrent.com%3A80&amp;tr=udp%3A%2F%2Fopen.demonii.com%3A1337&amp;tr=udp%3A%2F%2Ftracker.coppersurfer.tk%3A6969&amp;tr=udp%3A%2F%2Fexodus.desync.com%3A6969","seeders":0,"leechers":1,"uploader":"ValidusVyto","files":-1,"time":1380557370,"description":"_______ Visit us at our Semi Public Bittorrent Community ________\n  &lt;a href=&quot;\nhttp://p2pdl.com&quot; rel=&quot;nofollow&quot; target=&quot;_NEW&quot;&gt;\nhttp://p2pdl.com&lt;/a&gt;  _____________________________ &lt;a href=&quot; http://p2pdl.com&quot; rel=&quot;nofollow&quot; target=&quot;_NEW&quot;&gt; http://p2pdl.com&lt;/a&gt;\n\n\n\nZombie Hunter 2013 BRRip 720p x264 AAC - PRiSTiNE\n\n\nGenre: Action | Thriller\nPlot: Zombie Hunter is set in a post-apocalyptic Zombie wasteland caused by the\nmysterious street drug &quot;Natas&quot;. We follow one man who has nothing left other than\na beat up Camaro and a trunk full... \nDirector: K. King\nStars: Martin Copping, Danny Trejo, Clare Niederpruem.\nRated: N/a\n\nIMDb: &lt;a href=&quot;\nhttp://www.imdb.com/title/tt2446502/&quot; rel=&quot;nofollow&quot; target=&quot;_NEW&quot;&gt;\nhttp://www.imdb.com/title/tt2446502/&lt;/a&gt;\n\n\nFormat                         : MPEG-4\nFile size                      : 551 MiB\nDuration                       : 1h 32mn\nOverall bit rate               : 830 Kbps\n\nVideo\nFormat                         : AVC\nWidth                          : 1 280 pixels\nHeight                         : 544 pixels\nDisplay aspect ratio           : 2.35:1\nFrame rate mode                : Constant\nFrame rate                     : 23.976 fps\nBit depth                      : 10 bits\nStream size                    : 495 MiB (90%)\nWriting library                : x264 core 138 r2358\n\nAudio\nFormat                         : AAC\nBit rate mode                  : Variable\nBit rate                       : 80.0 Kbps\nChannel(s)                     : 2 channels\nChannel positions              : Front: L R\nSampling rate                  : 44.1 KHz\nStream size                    : 53.1 MiB (10%)\nLanguage                       : English\n\nSubtitle                       : N/a\n\nSource                         : 720p.BluRay.x264-WiKi\n &lt;a href=&quot;\nhttp://someimage.com/4Zl5APn&quot; rel=&quot;nofollow&quot; target=&quot;_NEW&quot;&gt;\nhttp://someimage.com/4Zl5APn&lt;/a&gt; &lt;a href=&quot;\nhttp://someimage.com/Y4tNXKJ&quot; rel=&quot;nofollow&quot; target=&quot;_NEW&quot;&gt;\nhttp://someimage.com/Y4tNXKJ&lt;/a&gt; &lt;a href=&quot;\nhttp://someimage.com/svDaXOq&quot; rel=&quot;nofollow&quot; target=&quot;_NEW&quot;&gt;\nhttp://someimage.com/svDaXOq&lt;/a&gt; &lt;a href=&quot;\nhttp://someimage.com/4ntoOQ3&quot; rel=&quot;nofollow&quot; target=&quot;_NEW&quot;&gt;\nhttp://someimage.com/4ntoOQ3&lt;/a&gt; &lt;a href=&quot;\nhttp://someimage.com/pkRj93f&quot; rel=&quot;nofollow&quot; target=&quot;_NEW&quot;&gt;\nhttp://someimage.com/pkRj93f&lt;/a&gt; &lt;a href=&quot;\nhttp://someimage.com/AIspDM2&quot; rel=&quot;nofollow&quot; target=&quot;_NEW&quot;&gt;\nhttp://someimage.com/AIspDM2&lt;/a&gt; &lt;a href=&quot;\nhttp://someimage.com/rmCJI5K&quot; rel=&quot;nofollow&quot; target=&quot;_NEW&quot;&gt;\nhttp://someimage.com/rmCJI5K&lt;/a&gt; &lt;a href=&quot;\nhttp://someimage.com/vK1pXkE&quot; rel=&quot;nofollow&quot; target=&quot;_NEW&quot;&gt;\nhttp://someimage.com/vK1pXkE&lt;/a&gt;\n\n----------------------------------------------------------------------------------------------------\n\n\nEncoded using revolutionary 10bit encoding, which enables us to provide you more crispier \nand sharper images at small sizes, just make sure you follow our instructions without a fault.\nRecommend to you to use latest version of VLC player. Install K-Lite Codec Pack or shark007 codecs\nin case of any kind of problem in playback (For non-VLC Media Player users). Alternatively, install\nCore AVC codecs, the fastest decoder that there is coupled with Community Center Codec Pack and play\non Windows Media Player Classic. Check sample to be sure.\nEnjoy!\n\nEncoder Notes:Looking For Early Access To Anything You Can Provide DVDScr, R5, DVDR, BluRay, Direct\nAudio, Music Releases and Seedboxes. We require dedicated servers, so as to do more \nand fast releases of movies.\nIf You Got anything to offer please contact us at &quot;&lt;a class=&quot;__cf_email__&quot; href=&quot;/cdn-cgi/l/email-protection&quot; data-cfemail=&quot;f0808297b098858398de939f9d&quot;&gt;[email&amp;#160;protected]&lt;/a&gt;&lt;script cf-hash='f9e31' type=&quot;text/javascript&quot;&gt;\n/* &lt;![CDATA[ */!function(){try{var t=&quot;currentScript&quot;in document?document.currentScript:function(){for(var t=document.getElementsByTagName(&quot;script&quot;),e=t.length;e--;)if(t[e].getAttribute(&quot;cf-hash&quot;))return t[e]}();if(t&amp;&amp;t.previousSibling){var e,r,n,i,c=t.previousSibling,a=c.getAttribute(&quot;data-cfemail&quot;);if(a){for(e=&quot;&quot;,r=parseInt(a.substr(0,2),16),n=2;a.length-n;n+=2)i=parseInt(a.substr(n,2),16)^r,e+=String.fromCharCode(i);e=document.createTextNode(e),c.parentNode.replaceChild(e,c)}}}catch(u){}}();/* ]]&gt; */&lt;/script&gt;&quot;.\n\nFacebook Fan Page:  \nSearch P2PDL on FB and hit like!!!\n\nFor more of our team uploads visit @                                             &lt;a href=&quot; http://thepiratebay.se/user/vitamin_x&quot; rel=&quot;nofollow&quot; target=&quot;_NEW&quot;&gt; http://thepiratebay.se/user/vitamin_x&lt;/a&gt;","torrent":{"xt":"urn:btih:0387e6044e00f3d9b6b54258fc23963f0f9a44d3","amp;dn":"Zombie+Hunter+2013+BRRip+720p+x264+AAC+-+PRiSTiNE+%5BP2PDL%5D","amp;tr":["udp%3A%2F%2Ftracker.openbittorrent.com%3A80","udp%3A%2F%2Fopen.demonii.com%3A1337","udp%3A%2F%2Ftracker.coppersurfer.tk%3A6969","udp%3A%2F%2Fexodus.desync.com%3A6969"],"infoHash":"0387e6044e00f3d9b6b54258fc23963f0f9a44d3","infoHashBuffer":{"type":"Buffer","data":[3,135,230,4,78,0,243,217,182,181,66,88,252,35,150,63,15,154,68,211]},"announce":[],"urlList":[]}}